<?xml version="1.0" encoding="utf-8" ?><svg xmlns="http://www.w3.org/2000/svg" xmlns:xlink="http://www.w3.org/1999/xlink" width="1024" height="1024" viewBox="330 288 372 322"><path fill="#1C4C37" d="M515.581 305.196C520.15 313.788 544.005 365.475 547.192 367.565C548.649 367.748 550.275 367.932 551.29 366.741C562.639 353.44 572.028 343.583 589.252 337.424C607.272 330.98 629.293 331.447 647.613 337.278C652.497 338.832 657.722 341.458 662.449 343.649C641.484 349.593 617.413 363.339 605.485 382.064C615.153 382.604 622.159 383.045 631.37 386.565C661.329 398.013 675.46 424.581 680.378 454.788C664.724 441.697 641.98 433.419 621.54 432.101C644.847 449.376 655.407 465.504 655.242 495.433C655.172 507.905 652.927 515.713 648.244 527.195C635.353 498.652 617.937 485.825 590.381 473.779C587.328 467.39 584.985 462.161 582.495 455.564C609.847 455.016 620.234 465.053 638.928 481.523C638.473 480.139 637.969 478.771 637.417 477.423C628.113 454.517 613.668 446.753 592.599 437.822C589.962 432.915 587.803 426.144 585.96 420.776C587.129 420.192 588.317 419.649 589.523 419.148C603.2 413.408 621.959 412.971 636.334 416.422C640.316 417.378 645.319 419.47 649.201 421.042C629.738 399.006 600.75 397.204 574.571 407.064C575.227 403.646 576.135 400.281 577.287 396.998C583.931 377.713 595.727 359.947 614.449 350.724L614.582 348.998C591.581 349.14 564.546 368.678 557.836 390.858C562.926 404.508 569.105 415.583 575.606 428.631C577.49 432.412 582.174 440.843 583.221 444.448C578.771 444.741 572.036 444.3 568.669 446.506C566.769 449.602 571.373 457.012 572.868 460.287C574.633 464.156 576.583 468.098 578.4 471.957L606.042 529.521C597.573 529.493 550.134 528.574 545.559 530.38C542.886 533.65 544.688 542.649 544.721 546.546C544.785 554.169 550.34 565.971 556.769 570.422C570.479 579.912 590.804 587.036 606.118 594.146C586.624 595.416 559.659 594.657 539.565 594.587L432.216 594.436C431.688 594.409 428.288 594.492 428.133 593.781C428.266 593.331 429.047 592.949 429.416 592.711C433.184 591.174 437.092 589.278 440.692 587.7C462.207 578.266 487.631 568.879 485.513 540.573C485.282 537.484 486.467 533.187 484.323 530.49C480.076 528.889 435.086 529.581 427.82 529.698C436.941 508.243 448.416 487.628 457.741 466.246C459.448 462.333 467.217 449.172 466.298 446.18C462.513 442.652 453.497 446.744 451.196 442.187C452.111 434.359 478.731 384.353 483.681 373.279C473.424 365.111 468.968 356.724 456.235 351.484C439.104 344.475 419.953 348.432 413.113 367.475C409.793 376.716 413.223 393.606 410.649 400.078C401.874 400.632 397.629 395.813 385.425 400.72C378.391 403.603 372.775 409.139 369.789 416.129C367.154 422.359 367.405 428.678 369.81 434.656C375.772 449.475 391.122 451.81 404.62 455.661C405.766 455.988 405.795 456.541 406.146 457.491C405.096 460.315 402.575 460.169 400.049 461.487C387.472 468.047 385.743 483.318 398.231 491.144C408.283 497.444 417.021 492.252 427.133 489.924C427.292 499.259 429.591 502.781 420.541 506.849C399.019 516.522 373.417 501.341 371.155 478.224C370.629 472.858 371.959 467.734 374.32 462.993C362.899 457.057 352.696 446.087 351.456 433.054C348.505 402.045 365.299 385.995 394.111 382.415C394.229 376.578 394.359 369.96 395.586 364.288C397.99 353.182 404.813 343.533 414.483 337.565C436.034 324.029 464.527 329.112 480.407 348.569C482.422 351.037 486.79 357.415 489.75 358.077C492.651 353.82 497.406 342.998 499.781 338.006L515.581 305.196Z"/><path fill="#315143" d="M432.216 594.436C431.688 594.409 428.288 594.492 428.133 593.781C428.266 593.331 429.047 592.949 429.416 592.711C430.781 593.776 430.668 593.715 432.216 594.436Z"/><path fill="white" d="M614.582 348.998L615.301 348.924C617.69 349.131 615.748 349.962 614.449 350.724L614.582 348.998Z"/><path fill="white" d="M515.316 349.794C516.112 350.034 517.046 350.27 517.753 350.717C519.53 351.838 548.942 413.653 552.119 421.306C552.96 423.332 553.708 425.319 553.986 427.507C551.874 429.349 542.478 429.083 539.35 429.159C541.147 436.165 545.172 443.109 548.348 449.715L565.355 485.565C567.792 490.603 576.65 506.249 575.441 510.601C574.269 511.942 573.643 512.397 571.773 512.548C557.246 513.718 541.958 511.17 527.583 513.805C528.222 532.279 527.872 551.9 527.757 570.395L519.25 570.442L501.967 570.467C501.847 561.665 503.032 520.395 501.252 514.976C500.836 513.707 500.631 513.328 499.387 512.79C492.548 509.834 467.084 515.345 459.571 511.413C457.306 508.17 462.919 499.131 464.559 495.445C473.399 475.579 483.433 456.164 492.029 436.211C492.911 434.163 493.038 431.856 492.498 429.723C488.812 426.268 480.993 431.498 479.215 426.346C480.217 419.643 512.417 352.31 515.316 349.794Z"/><path fill="#E98932" d="M530.4 442.556C532.685 442.459 536.008 442.011 538.072 443.15C541.282 444.922 563.992 493.329 566.494 500.499C567.026 502.023 567.451 503.578 566.727 505.096L565.604 505.466C562.383 505.49 559.05 505.407 555.82 505.368C555.779 505.314 555.738 505.261 555.697 505.208C551.276 499.564 529.674 452.567 528.05 445.074C528.588 443.347 528.507 443.851 530.4 442.556Z"/><path fill="#E98932" d="M519.099 367.762C522.256 370.684 543.682 417.718 545.77 423.965C544.079 424.781 542.153 425.485 540.393 426.175C537.703 426.056 534.654 425.568 531.956 425.213C527.326 419.881 516.143 395.124 513.133 387.72C515.268 381.239 517.205 374.325 519.099 367.762Z"/><path fill="#1C4C37" d="M662.603 600.192C667.96 600.072 673.646 600.16 679.032 600.164C678.998 619.033 679.073 637.903 679.258 656.772C684.638 652.126 690.285 649.085 697.403 648.003C706.329 646.634 715.43 648.923 722.646 654.354C740.228 667.657 740.048 693.298 727.3 709.934C713.096 724.358 694.523 724.514 679.42 711.389C679.402 713.874 679.31 716.463 679.253 718.956L662.539 719.002L662.603 600.192Z"/><path fill="white" d="M695.441 663.678C706.79 661.674 717.622 669.221 719.675 680.561C721.727 691.9 714.226 702.765 702.895 704.866C691.496 706.979 680.551 699.422 678.486 688.014C676.422 676.606 684.025 665.694 695.441 663.678Z"/><path fill="#1C4C37" d="M307.924 648.148C309.621 647.936 312.024 647.829 313.754 647.823C323.133 647.735 332.163 651.379 338.855 657.951C347.365 666.478 349.497 677.261 349.539 688.852C331.455 689.182 312.048 687.929 294.082 688.881C297.576 701.487 304.69 707.991 318.912 705.625C325.005 704.611 328.789 701.641 332.075 696.548L332.443 695.966L333.218 695.756C337.737 697.783 342.277 699.701 346.543 702.218C346.166 702.83 345.778 703.434 345.378 704.031C327.336 730.889 284.233 724.582 278.442 691.774C274.75 670.863 286.365 651.765 307.924 648.148Z"/><path fill="white" d="M312.819 661.184C324.503 661.357 329.847 666.236 334.148 676.601C328.137 677.009 321.896 676.892 315.851 676.919L294.5 676.983C297.461 666.627 301.905 662.318 312.819 661.184Z"/><path fill="#1C4C37" d="M520.037 648.145C536.955 646.581 551.576 653.917 558.031 670.234C560.435 676.311 560.492 682.503 560.512 688.947C542.175 688.563 523.834 688.44 505.493 688.579C509.232 705.146 525.227 712.035 539.754 701.156C541.363 699.952 543.013 696.088 545.008 694.9L546.661 695.439C550.631 697.696 553.994 699.64 558.173 701.534C557.754 702.264 557.321 702.985 556.874 703.697C545.898 721.115 521.825 726.031 504.774 714.861C496.966 709.673 491.586 701.548 489.857 692.334C485.646 670.408 498.015 652.06 520.037 648.145Z"/><path fill="white" d="M520.553 661.158C532.997 660.192 541.172 664.398 544.852 676.581C539.92 676.941 534.969 676.827 530.019 676.795C521.985 676.769 513.952 676.684 505.92 676.541C508.691 668.676 512.287 663.675 520.553 661.158Z"/><path fill="#1C4C37" d="M367.068 600.096L383.522 600.052C383.448 625.937 383.606 651.821 383.998 677.703C392.094 669.298 402.157 657.07 410.771 649.907L432.001 649.939C422.861 660.532 410.738 671.413 400.691 682.959C404.577 688.07 416.014 699.93 420.795 705.103C425.132 709.845 429.59 714.475 434.164 718.988L411.716 718.916C403.365 710.435 392.335 697.183 383.892 687.928C383.581 698.116 383.684 708.724 383.647 718.945L367.281 718.868C367.658 679.455 367.153 639.552 367.068 600.096Z"/><path fill="#1C4C37" d="M164.491 648.076C165.637 647.978 166.786 647.91 167.936 647.87C179.377 647.548 190.429 655.225 192.072 666.298C194.479 682.514 193.481 702.454 193.472 718.881C187.996 718.97 182.519 718.912 177.047 718.705C177.084 706.72 177.128 694.702 177.099 682.718C177.064 668.719 171.08 659.136 155.91 664.476C146.809 670.755 148.378 684.208 148.406 694.068C148.506 702.35 148.407 710.634 148.108 718.911C142.813 718.993 137.366 718.941 132.058 718.952C132.337 696.286 132.039 672.918 132.02 650.197C137.413 650.046 143.121 650.087 148.54 650.04C148.562 652.636 148.674 655.363 148.746 657.969C153.294 651.88 157.58 650.03 164.491 648.076Z"/><path fill="#1C4C37" d="M611.616 648.079C612.657 647.961 613.705 647.899 614.754 647.893C642.427 647.761 640.449 672.85 640.325 692.315L640.197 719.005L624.37 718.975C624.144 706.388 624.436 693.775 624.132 681.167C623.978 674.79 622.533 666.848 615.916 663.962C612.002 662.254 607.754 662.897 603.821 664.24C592.408 671.039 595.995 688.721 595.529 700.155C595.288 706.057 595.608 712.811 595.65 718.774C590.205 718.84 584.759 718.832 579.314 718.751C578.908 696.113 579.142 672.614 579.161 649.932L595.841 649.793C595.737 652.079 595.821 654.463 595.858 656.76C601.94 650.82 603.297 650.075 611.616 648.079Z"/><path fill="#1C4C37" d="M875.023 650.054L937.596 650.137C925.11 666.807 912.753 687.259 900.301 704.809C910.964 704.175 925.763 704.733 936.678 704.831L936.867 718.803C935.079 719.177 921.195 719.032 918.309 719.03L871.786 718.905C882.31 703.629 899.581 680.078 908.284 664.701L874.986 664.758L875.023 650.054Z"/><path fill="#1C4C37" d="M233.336 648.135C246.022 647.393 254.85 650.556 261.934 661.621C257.665 664.34 254.407 666.846 250.412 669.911C246.613 664.733 242.96 660.771 236.057 660.9C233.768 660.943 232.201 661.787 230.666 663.444C224.577 669.915 237.486 674.788 241.994 676.286C252.834 679.947 265.137 684.495 265.375 698.021C265.569 709.088 259.282 716.634 248.764 719.557C245.469 720.473 242.864 720.554 239.418 720.65C227.524 720.568 217.447 715.022 210.766 705.205C214.859 702.266 217.797 700.122 221.627 696.791C226.776 702.622 240.486 712.47 248.383 703.495C254.028 697.08 241.006 691.999 235.737 690.223C219.926 684.894 206.104 674.687 217.07 656.487C220.175 651.294 227.259 649.127 233.336 648.135Z"/><path fill="#1C4C37" d="M754.45 600.48L770.951 600.486C770.478 639.572 770.905 679.753 770.957 718.875C765.554 719.028 759.935 718.908 754.514 718.868L754.45 600.48Z"/><path fill="#1C4C37" d="M449.504 625.998L466.005 625.937L465.86 649.994L480.922 649.876C480.934 654.739 480.869 659.601 480.727 664.462L465.861 664.51L465.802 714.125L465.821 718.948L449.458 718.92L449.359 664.493L440.061 664.511L440.089 650.01L449.349 649.926C449.666 642.404 449.481 633.617 449.504 625.998Z"/><path fill="#1C4C37" d="M834.11 626.129L850.432 626.079C850.392 633.999 850.41 641.919 850.485 649.839C855.079 650.168 860.809 650.064 865.493 650.102L865.513 664.568L850.493 664.493L850.448 714.125L850.433 718.914L833.963 718.956L833.978 664.519L824.902 664.485L824.891 650.006L833.937 649.856C834.185 642.175 834.073 633.86 834.11 626.129Z"/><path fill="#1C4C37" d="M99.2702 615.746C102.299 615.73 105.438 615.818 108.476 615.862L108.501 719.005L101.75 719.009L91.5315 719.013L91.4804 615.796L99.2702 615.746Z"/><path fill="#1C4C37" d="M792.924 650.033C798.354 650.019 803.784 649.96 809.213 649.856C809.099 672.84 809.101 695.825 809.22 718.81C803.698 718.872 798.176 718.894 792.654 718.875C793.12 696.411 792.804 672.578 792.924 650.033Z"/><path fill="#E98932" d="M443.894 358.669C458.609 358.014 463.691 365.43 472.745 373.209C471.648 375.376 467.098 384.184 464.985 385.676C464.28 386.174 461.571 381.549 460.844 380.64C457.397 376.328 454.864 374.381 449.813 372.269C426.042 365.73 431.036 403.77 423.805 379.784C422.72 376.185 426.088 369.743 428.175 366.808C432.085 361.308 437.555 359.545 443.894 358.669Z"/><path fill="#1C4C37" d="M798.581 611.257C804.979 609.999 811.189 614.151 812.473 620.543C813.756 626.936 809.63 633.163 803.243 634.473C796.818 635.79 790.547 631.634 789.257 625.205C787.966 618.775 792.147 612.521 798.581 611.257Z"/></svg>